<svg width="53" height="108" viewBox="0 0 53 130" fill="none" xmlns="http://www.w3.org/2000/svg">
<path d="M33.8956 36.3336L24.6616 31.0016V29.6664L26.4619 30.7087C26.548 30.7604 26.66 30.7862 26.7547 30.7862C26.8581 30.7862 26.9615 30.7604 27.0562 30.7087L31.4924 28.1504C31.6732 28.047 31.7938 27.8489 31.7938 27.6336V22.5169C31.7938 22.3016 31.6819 22.1121 31.4924 22.0001L27.0562 19.4418C26.8667 19.3384 26.6428 19.3384 26.4619 19.4418L22.0257 22.0001C21.8448 22.1121 21.7329 22.3016 21.7329 22.5169V27.6336C21.7329 27.8489 21.8448 28.047 22.0257 28.1504L23.292 28.8826V31.3978C23.292 31.6476 23.4212 31.863 23.6365 31.9922L32.8706 37.3242V44.3789L26.7547 47.9106L20.6389 44.3789V37.3155L22.6545 36.1441C22.9819 35.9632 23.0938 35.5411 22.9043 35.2138C22.7148 34.8864 22.3014 34.7745 21.974 34.964L19.6138 36.325C19.3985 36.4455 19.2693 36.6695 19.2693 36.9107V44.7579C19.2693 45.0077 19.3985 45.2231 19.6138 45.3523L26.4102 49.2716C26.5135 49.3319 26.6341 49.3663 26.7547 49.3663C26.8667 49.3663 26.9873 49.3319 27.0993 49.2716L33.8956 45.3523C34.1024 45.2317 34.2316 45.0077 34.2316 44.7579V36.9107C34.2316 36.6781 34.1024 36.4542 33.8956 36.3336ZM22.9216 22.8529L26.7633 20.6305L30.6051 22.8529V27.2804L26.7633 29.4942L22.9216 27.2804V22.8529Z" fill="#FFFFFF"/>
<path d="M22.2325 21.0528L24.1964 19.9157L22.2325 18.4858V21.0528Z" fill="#FFFFFF"/>
<path d="M31.4579 21.0528L29.5026 19.9157L31.4579 18.4858V21.0528Z" fill="#FFFFFF"/>
<path d="M8.47614 67.1113H44.5596" stroke="#FFFFFF" stroke-width="1.6133" stroke-miterlimit="10" stroke-linecap="round"/>
<path d="M17.8653 99.5249V106.683L26.5739 111.714L35.2825 106.683V99.5249" stroke="#FFFFFF" stroke-width="1.181" stroke-miterlimit="10" stroke-linecap="round" stroke-linejoin="round"/>
<path d="M35.2825 96.6228L26.5739 91.5923L17.8653 96.6228" stroke="#FFFFFF" stroke-width="1.181" stroke-miterlimit="10" stroke-linecap="round" stroke-linejoin="round"/>
<path d="M26.5739 111.714V101.67L35.2825 96.6226" stroke="#FFFFFF" stroke-width="0.9842" stroke-miterlimit="10" stroke-linecap="round" stroke-linejoin="round"/>
<path d="M17.8653 96.6226L26.5739 101.67" stroke="#FFFFFF" stroke-width="0.9842" stroke-miterlimit="10" stroke-linecap="round" stroke-linejoin="round"/>
<path d="M26.5739 91.5918V92.1" stroke="#FFFFFF" stroke-width="0.3983" stroke-linecap="round" stroke-linejoin="round"/>
<path d="M26.5739 93.6074V100.387" stroke="#FFFFFF" stroke-width="0.3983" stroke-linecap="round" stroke-linejoin="round" stroke-dasharray="1.17 1.17"/>
<path d="M26.5739 101.136V101.644L26.1346 101.894" stroke="#FFFFFF" stroke-width="0.3983" stroke-linecap="round" stroke-linejoin="round"/>
<path d="M24.8339 102.652L18.9592 106.054" stroke="#FFFFFF" stroke-width="0.3983" stroke-linecap="round" stroke-linejoin="round" stroke-dasharray="1.17 1.17"/>
<path d="M18.3046 106.434L17.8653 106.683" stroke="#FFFFFF" stroke-width="0.3983" stroke-linecap="round" stroke-linejoin="round"/>
<path d="M35.2825 106.683L34.8432 106.434" stroke="#FFFFFF" stroke-width="0.3983" stroke-linecap="round" stroke-linejoin="round"/>
<path d="M33.5426 105.675L27.6679 102.273" stroke="#FFFFFF" stroke-width="0.3983" stroke-linecap="round" stroke-linejoin="round" stroke-dasharray="1.17 1.17"/>
<path d="M27.0132 101.894L26.5739 101.644" stroke="#FFFFFF" stroke-width="0.3983" stroke-linecap="round" stroke-linejoin="round"/>
<path d="M26.5739 91.5919L24.0242 86.8457L15.3156 91.8762L17.8653 96.6224" stroke="#FFFFFF" stroke-width="1.181" stroke-miterlimit="10" stroke-linecap="round" stroke-linejoin="round"/>
<path d="M26.5739 101.644L21.0782 101.386L12.3696 96.3555L17.8653 96.6139" stroke="#FFFFFF" stroke-width="1.181" stroke-miterlimit="10" stroke-linecap="round" stroke-linejoin="round"/>
<path d="M26.5739 101.644L32.0696 101.386L40.7782 96.3555L35.2825 96.6139" stroke="#FFFFFF" stroke-width="1.181" stroke-miterlimit="10" stroke-linecap="round" stroke-linejoin="round"/>
<path d="M26.5739 91.5919L29.1236 86.8457L37.8408 91.8762L35.2825 96.6224" stroke="#FFFFFF" stroke-width="1.181" stroke-miterlimit="10" stroke-linecap="round" stroke-linejoin="round"/>
</svg>
