<?xml version="1.0" encoding="utf-8"?>
<!-- Generator: Adobe Illustrator 27.5.0, SVG Export Plug-In . SVG Version: 6.00 Build 0)  -->
<svg version="1.1" id="Capa_1" xmlns="http://www.w3.org/2000/svg" xmlns:xlink="http://www.w3.org/1999/xlink" x="0px" y="0px"
	 viewBox="0 0 250 250" style="enable-background:new 0 0 250 250;" xml:space="preserve">
<style type="text/css">
	.st0{fill:url(#SVGID_1_);}
</style>
<g>
	<linearGradient id="SVGID_1_" gradientUnits="userSpaceOnUse" x1="-1.818989e-12" y1="124.9937" x2="249.9874" y2="124.9937">
		<stop  offset="5.618000e-03" style="stop-color:#EFC981"/>
		<stop  offset="0.1854" style="stop-color:#E6C081"/>
		<stop  offset="0.5951" style="stop-color:#C58511"/>
		<stop  offset="0.8105" style="stop-color:#E5B76D"/>
		<stop  offset="0.8708" style="stop-color:#EEC687"/>
		<stop  offset="1" style="stop-color:#F2E4CE"/>
	</linearGradient>
	<path class="st0" d="M153.2,3.4c-0.1-0.1-0.1-0.1-0.2-0.1c-32.5-7.6-66-1.9-94.2,15.8C30.4,36.8,10.8,64.6,3.3,97
		c-7.6,32.4-1.9,66,15.7,94.2c17.7,28.2,45.3,48,77.7,55.5c0,0,0.2,0,0.3,0.1c67,15.4,134.3-26.6,149.7-93.7
		C262.2,86,220.3,18.9,153.2,3.4z M245.1,152.6c-15.2,66.1-81.4,107.5-147.6,92.3c-0.1-0.1-0.1-0.1-0.2-0.1
		c-32.1-7.4-59.2-26.7-76.6-54.6C3.2,162.5-2.4,129.6,5,97.4C12.4,65.3,31.8,38,59.8,20.5C87.5,3.1,120.6-2.4,152.6,4.9
		c0.1,0.1,0.1,0.1,0.2,0.1C218.9,20.3,260.2,86.5,245.1,152.6z M156.7,25.2l-1.9-0.6l-0.6,2.1l1.9,0.6L156.7,25.2z M165.4,32
		l4.7,2.1l-0.1,2.8l1.9,0.8l0.2-11.9l-1.6-0.8l-9,8.2l1.8,0.8L165.4,32z M170.2,27.3l-0.1,4.8l-3.5-1.6L170.2,27.3z M177.6,35.6
		l4.4,2.7l-2.5,3.9l1.6,1l5.8-9.2l-1.6-1l-2.4,3.8l-4.4-2.7l2.4-3.8l-1.6-1l-5.8,9.2l1.6,1L177.6,35.6z M187.5,48.5
		c2.6,2.2,6,1.7,8-0.7c1.9-2.3,1.7-5.7-0.9-7.9c-2.6-2.2-6-1.7-8,0.7C184.7,42.8,184.9,46.4,187.5,48.5z M188.2,41.8
		c1.4-1.7,3.7-2.1,5.3-0.7c1.7,1.4,1.8,3.8,0.4,5.4c-1.3,1.7-3.6,2-5.3,0.7C186.9,45.8,186.9,43.4,188.2,41.8z M194.9,55.1l2.8-2.6
		l1.7,1.7l-0.9,4.6l1.6,1.6l0.9-5c1.4,0.7,2.9,0.8,4.2-0.4c0.7-0.7,1.1-1.5,1.1-2.3c-0.1-1-0.5-2-1.4-3l-3.3-3.5l-8.1,7.6
		L194.9,55.1z M201.6,48.8l2,2c0.9,1,1,2.1,0.2,2.9c-0.8,0.7-2,0.6-2.9-0.4l-1.9-2L201.6,48.8z M208,66.4l-1.4,2.5l1.2,1.6l5.9-10.4
		l-1.1-1.4l-11.5,2.6l1.2,1.6l2.7-0.7L208,66.4z M211.3,60.7l-2.4,4.1l-2.2-3L211.3,60.7z M215,84l1.5-0.8l-2.8-5.6l2.6-1.3l2.5,4.8
		l1.5-0.8l-2.5-4.8l2.5-1.4l2.9,5.4l1.5-0.8l-3.7-7.2l-9.7,5.2L215,84z M216.7,87.7L224,85l-5.2,8.3l0.5,1.5l10.2-3.8l-0.6-1.7
		l-7.1,2.6l5-8.1l-0.6-1.7l-10,3.9L216.7,87.7z M222.3,105.1l0.3,1.9l8.9-1.8l0.6,3.4l1.8-0.4l-1.7-8.7l-1.8,0.4l0.6,3.4
		L222.3,105.1z M228.7,119.2c-2.1,0.2-3.2-0.7-3.3-2.4c-0.1-1.7,0.9-2.7,2.9-2.9l6.2-0.5l-0.2-2l-6.3,0.5c-3.2,0.3-4.7,2.3-4.2,5
		c0.1,2.9,1.9,4.6,5.2,4.3l6.2-0.5l-0.2-2L228.7,119.2z M231.8,124.5c-2.1-0.1-2.7,1.2-3.4,3.5c-0.5,2-0.9,2.4-1.7,2.4
		c-0.8-0.1-1.3-0.8-1.3-2c0.1-1.4,0.7-2.3,1.6-3.4l-1.3-1.2c-1.2,1.2-1.9,2.7-1.9,4.7c-0.1,2.2,1.1,3.8,3.1,3.9
		c1.7,0.1,2.5-1.1,3.2-3.4c0.5-2.1,0.9-2.7,1.8-2.6c0.7,0,1.2,0.6,1.2,1.8c0,1-0.5,1.9-1.2,2.9l1.4,1.1c1-1.1,1.4-2.4,1.5-3.9
		C234.9,126.1,233.7,124.6,231.8,124.5z M228.5,140.1c-3.1-0.6-6,1.2-6.6,4.4c-0.6,3.2,1.4,6.1,4.4,6.7c3,0.7,6-1.1,6.6-4.4
		C233.6,143.6,231.6,140.7,228.5,140.1z M231.2,146.6c-0.3,2.1-2.4,3.3-4.5,2.8c-2.1-0.5-3.5-2.3-3-4.3c0.3-2.1,2.4-3.3,4.5-2.8
		C230.2,142.6,231.7,144.5,231.2,146.6z M219.3,154.5l10.5,3.2l0.5-1.8l-10.5-3.2L219.3,154.5z M217,161.4c-1.3,3.2,0.1,6.2,2.9,7.4
		c2.8,1.1,5.9-0.2,7.2-3.4l1.5-3.8l-10.1-4L217,161.4z M219.6,160l6.8,2.7l-0.8,2c-0.9,2.1-2.9,2.9-4.9,2.1c-1.9-0.7-2.9-2.7-2-4.8
		L219.6,160z M218.8,171c-2.6-1.4-6-0.6-7.5,2.2c-1.7,2.8-0.5,6.2,2.1,7.7c2.6,1.5,6,0.8,7.6-2.2C222.7,175.9,221.6,172.5,218.8,171
		z M219.4,177.8c-1.1,2-3.4,2.5-5.2,1.4c-1.8-1-2.6-3.1-1.5-5.1c1.1-2,3.4-2.5,5.2-1.4C219.8,173.7,220.6,175.9,219.4,177.8z
		 M213.5,184.8c-1.6-1.2-2.9-0.5-4.7,1c-1.6,1.4-2.1,1.4-2.8,1c-0.7-0.4-0.7-1.3,0-2.3c0.8-1.1,1.8-1.7,3.2-2l-0.4-1.8
		c-1.7,0.4-3.1,1.2-4.2,2.8c-1.3,1.9-1.3,3.9,0.4,5.1c1.4,1,2.8,0.5,4.6-1c1.8-1.4,2.4-1.6,3-1.1c0.5,0.4,0.6,1.3,0,2.2
		c-0.6,0.8-1.5,1.3-2.6,1.7l0.5,1.7c1.4-0.4,2.4-1.1,3.4-2.4C215.1,187.9,215,185.9,213.5,184.8z M199.1,195.9l1.6,1.5l1.4-1.5
		l-1.6-1.5L199.1,195.9z M188.8,200.9l1.1,1.3l4.6-4.2l2,2.1l-4.1,3.7l1.1,1.3l4.1-3.7l2,2.1l-4.6,4.1l1.1,1.3l5.9-5.5l-7.1-8.1
		L188.8,200.9z M182.7,205.3c-1.5,1.1-2.4,2.7-2.7,4l2.6,3.7l3.7-2.7l-1-1.4l-2.3,1.7l-1.2-1.7c0.4-0.8,0.9-1.6,1.7-2.2
		c1.8-1.3,4.1-0.8,5.3,1c1.2,1.8,1.1,4-0.6,5.2c-1.1,0.8-2.1,0.9-3.2,0.8l-0.2,1.9c1.5,0.2,2.8-0.1,4.3-1.2c2.6-1.9,2.9-5.4,1.2-7.9
		C188.5,204,185.2,203.2,182.7,205.3z M170,213.3l0.8,1.5l5-2.8l4.5,8l1.6-0.9l-5.2-9.5L170,213.3z M163.9,215.9
		c-1.9,0.7-2.7,2-3.3,3.5l1.7,0.6c0.6-1.2,1-2.1,2.3-2.6c1.9-0.9,4,0.1,4.8,2.1c0.8,2,0.1,4.1-1.8,5c-1.2,0.5-2.3,0.4-3.4,0
		l-0.5,1.8c1.3,0.6,2.6,0.8,4.5-0.1c3-1.4,4.2-4.6,2.9-7.5C169.9,215.9,166.7,214.5,163.9,215.9z M152.3,223.9l0.6,2.1l1.9-0.6
		l-0.6-2.1L152.3,223.9z M146.9,224.3l-5,1l-1.6-2.4l-2,0.4l6.9,9.8l1.8-0.4l2.5-11.5l-1.9,0.3L146.9,224.3z M145.7,230.7l-2.7-4
		l3.7-0.7L145.7,230.7z M134.7,223.5l0.4,4.6l-5.2,0.3l-0.4-4.6l-1.9,0.1l0.7,10.9l1.9-0.1l-0.4-4.5l5.2-0.3l0.4,4.5l1.9-0.1
		l-0.7-10.9L134.7,223.5z M119.4,223.6c-3.3-0.1-5.8,2.2-6,5.3c-0.2,3.1,2,5.7,5.3,5.9c3.3,0.3,5.8-2.2,6-5.3
		C124.9,226.5,122.7,223.8,119.4,223.6z M118.7,233c-2.1-0.1-3.5-1.9-3.4-4.1c0.2-2,1.8-3.7,3.8-3.5c2.2,0.1,3.6,1.8,3.5,4
		C122.5,231.6,120.9,233.1,118.7,233z M108.8,226.4l-2.4-0.4l-2-4.2l-2.2-0.4l2.2,4.6c-1.6,0.1-2.9,1-3.2,2.7
		c-0.2,0.8,0,1.6,0.5,2.4c0.4,0.9,1.5,1.4,2.8,1.7l4.8,0.9l2.1-10.7l-1.9-0.3L108.8,226.4z M107.8,231.8l-2.7-0.5
		c-1.4-0.4-2.2-1.2-1.9-2.3c0.1-1.1,1.2-1.7,2.5-1.4l2.8,0.6L107.8,231.8z M97,222.7l-4.9-1.5l-0.2-2.9l-1.9-0.6l1.4,11.9l1.7,0.5
		l7.6-9l-1.9-0.6L97,222.7z M92.8,227.7l-0.4-4.7l3.4,1L92.8,227.7z M75.5,212.9l5.5,2.8l-1.4,2.6l-4.9-2.4l-0.9,1.5l4.9,2.4
		l-1.2,2.6l-5.5-2.8l-0.7,1.5l7.3,3.6l4.9-9.6l-7.3-3.7L75.5,212.9z M72.9,209.1l-4.3,6.5l-0.7-9.8l-1.4-0.8l-6,9.1l1.6,1l4.2-6.3
		l0.6,9.4l1.4,1l6.2-9.1L72.9,209.1z M56.8,196.7l-6.2,6.7l-2.5-2.4l-1.2,1.3l6.5,6l1.2-1.3l-2.5-2.4l6.1-6.6L56.8,196.7z
		 M50.1,188.9c-1.8-2.2-4.3-2.5-6.7-0.4l-4.7,4.1l1.2,1.4l4.8-4c1.6-1.2,3-1.1,4.1,0.2s1,2.8-0.6,4.1l-4.7,4.1l1.2,1.4l4.8-4
		C51.9,193.7,51.9,191.3,50.1,188.9z M39.6,183.3c-0.7-2-0.6-2.5,0-3c0.8-0.5,1.6-0.1,2.3,0.8c0.7,1,0.9,2.2,0.7,3.6l1.8,0.2
		c0.3-1.7-0.3-3.3-1.3-4.7c-1.2-1.9-3.1-2.6-4.8-1.4c-1.5,1-1.5,2.5-0.7,4.7c0.9,2,0.9,2.6,0.1,3.1c-0.6,0.4-1.3,0.2-2-0.7
		c-0.6-0.9-0.7-1.8-0.7-3.1h-1.8c-0.1,1.4,0.3,2.6,1.1,4c1.2,1.9,3.2,2.5,4.7,1.4C40.5,187,40.5,185.6,39.6,183.3z M35.2,165.9
		c-1.4-3-4.7-4.2-7.5-2.9c-2.9,1.3-4.2,4.5-2.8,7.5c1.4,3.2,4.6,4.2,7.5,2.9C35.3,172.1,36.6,168.9,35.2,165.9z M31.6,171.6
		c-1.9,0.9-4.1,0.2-5-1.8c-0.9-1.8,0-4.1,2-4.9c1.9-1,4-0.3,4.9,1.7C34.5,168.5,33.5,170.7,31.6,171.6z M31.1,156.4L20.9,160
		l0.6,1.8l10.2-3.6L31.1,156.4z M29.1,149.5c-0.9-3.3-3.7-5-6.7-4.3c-2.9,0.8-4.6,3.7-3.8,7l1,4l10.5-2.7L29.1,149.5z M20.9,153.9
		l-0.6-2.1c-0.6-2.2,0.6-3.9,2.7-4.5c2-0.6,4,0.5,4.5,2.7l0.7,2.1L20.9,153.9z M22,142.7c3-0.4,5.3-3,5-6.3
		c-0.4-3.3-3.3-5.4-6.3-5.1c-3.1,0.4-5.4,3-5,6.3C16.1,140.9,19,143,22,142.7z M17.5,137.4c-0.3-2.1,1.3-3.8,3.4-4.1
		c2.2-0.3,4,1.1,4.3,3.2c0.3,2.1-1.3,3.8-3.4,4.1C19.7,140.9,17.8,139.5,17.5,137.4z M18.2,128.5c2.1,0,2.8-1.3,3.3-3.6
		c0.4-1.9,0.9-2.4,1.7-2.4c0.7,0.1,1.3,0.8,1.3,2c0,1.3-0.5,2.3-1.4,3.4l1.4,1.2c1.2-1.4,1.8-2.9,1.9-4.7c0-2.1-1.1-3.8-3.2-3.8
		c-1.8,0-2.8,1.2-3.3,3.5c-0.5,2.1-0.9,2.7-1.8,2.6c-0.7,0-1.3-0.6-1.3-1.8c0-1.1,0.4-2,1.1-3l-1.4-1c-0.9,1.1-1.4,2.3-1.4,3.9
		C15.1,126.8,16.3,128.4,18.2,128.5z M23.1,112.9l0.2-2l-2.1-0.2l-0.2,2L23.1,112.9z M29,102l-3.4-0.9l0.5-2.1
		c0.5-2.3-0.3-4.6-2.6-5.1c-2.2-0.6-3.9,0.7-4.6,3.1l-1.1,4.1l10.8,2.7L29,102z M24.3,98.5l-0.5,2.1l-3.8-1l0.5-2.2
		c0.3-1.3,1.3-2,2.5-1.7C24.1,96,24.6,97,24.3,98.5z M25.8,92.2c2.9,1,6.1-0.2,7.3-3.2c1.2-3.1-0.4-6.2-3.2-7.4
		c-2.8-1.2-6.1,0.1-7.3,3.2C21.4,87.9,23,91,25.8,92.2z M24.3,85.3c0.8-2,3-2.7,5-1.9c2,0.7,3,2.8,2.2,4.6c-0.9,2-3,2.8-5,2.1
		C24.5,89.3,23.6,87.3,24.3,85.3z M38.2,77.8c1.7-3,0.7-6.2-2-7.7c-2.6-1.4-5.9-0.5-7.5,2.5l-2,3.5l9.5,5.2L38.2,77.8z M29.1,75.2
		l0.9-1.8c1.1-2,3.3-2.6,5.1-1.5c1.8,1.1,2.5,3,1.4,5.1l-0.9,1.8L29.1,75.2z M37.6,67.9c2.5,1.8,6,1.4,7.9-1.1
		c1.2-1.7,1.3-3.1,1-4.7l-1.7,0.2c0.3,1.2,0.2,2.2-0.6,3.3c-1.3,1.7-3.5,1.9-5.3,0.6c-1.8-1.2-2.2-3.4-1-5.1
		c0.6-1.1,1.6-1.5,2.8-1.7l-0.5-1.8c-1.4,0.1-2.7,0.7-3.9,2.4C34.3,62.7,35,66,37.6,67.9z M50,60.6L48.8,58l3.5-3.8l2.7,1l1.4-1.5
		L45,49.8l-1.2,1.3l4.8,11L50,60.6z M46.1,52l4.5,1.7l-2.5,2.6L46.1,52z M57.3,47c1.8-1.1,2.4-1,2.9-0.4c0.7,0.6,0.5,1.5-0.5,2.3
		s-2.1,1.2-3.5,1.1v1.8c1.6,0,3.3-0.6,4.4-1.8c1.7-1.4,2.1-3.4,0.8-5c-1.3-1.3-2.7-1.2-4.8-0.1c-2,1.1-2.6,1-3.1,0.4
		c-0.5-0.5-0.3-1.4,0.5-2.1c0.8-0.7,1.8-1,3-1.1l-0.1-1.7c-1.3,0.1-2.7,0.6-3.8,1.6c-1.6,1.5-1.9,3.5-0.7,4.9
		C53.8,48.4,55.1,48,57.3,47z M62.3,37.1l5.3,7.4l1.5-1.1l-5.2-7.5l2.8-1.9l-1.1-1.4l-7.2,5l1.1,1.4L62.3,37.1z M74.4,34.9
		c1.9-0.6,2.6-0.4,2.9,0.3c0.4,0.6,0,1.6-1,2.1c-1.2,0.6-2.4,0.7-3.7,0.4l-0.4,1.8c1.7,0.3,3.3,0,5.1-0.7c1.9-1.1,2.7-3,1.7-4.8
		c-1-1.7-2.4-1.7-4.7-1.1c-2.1,0.5-2.6,0.6-3.1-0.2c-0.2-0.6,0-1.5,1-2c0.8-0.4,1.8-0.6,3.1-0.4l0.2-1.8c-1.5-0.2-2.8-0.1-4.2,0.7
		c-1.9,1.1-2.6,3-1.7,4.6C70.6,35.6,72.1,35.5,74.4,34.9z M87.4,29.4l-0.8-2l-1.9,0.9l0.8,2L87.4,29.4z M103.9,28.2l-0.4-1.6l-6,1.6
		l-0.8-2.9l5.2-1.4l-0.4-1.6l-5.2,1.4l-0.8-2.8l5.9-1.6l-0.4-1.6l-7.8,2.1L96,30.3L103.9,28.2z M111.2,27.4c1.9-0.4,3.4-1.3,4.3-2.4
		l-0.6-4.5l-4.5,0.6l0.3,1.6l2.8-0.4l0.3,2c-0.6,0.6-1.4,1.1-2.5,1.2c-2.3,0.4-4-1-4.3-3.3c-0.3-2.1,0.9-4,2.9-4.3
		c1.4-0.2,2.3,0.1,3.2,0.7l1-1.6c-1.2-0.8-2.4-1.1-4.3-0.9c-3.2,0.4-5.1,3.3-4.7,6.4C105.5,25.7,108,27.7,111.2,27.4z M126.2,25.8
		l-0.1-1.7l-5.7,0.2l-0.3-9.1l-1.9,0.1l0.2,10.9L126.2,25.8z M132.7,26.6c2,0,3.3-0.6,4.5-1.7l-1.1-1.3c-0.9,0.8-1.8,1.3-3.2,1.2
		c-2-0.1-3.4-1.9-3.3-4.1c0.2-2.1,1.9-3.7,3.9-3.6c1.3,0.2,2.2,0.8,3,1.6l1.3-1.4c-1.1-1-2.2-1.8-4.2-2c-3.3-0.1-5.8,2.1-6,5.3
		C127.4,23.8,129.6,26.3,132.7,26.6z M162.4,188.9l4-0.5c3.2-0.4,5.9-2.2,7.7-4.9l10.2-15.6c1.6-2.6,2.2-5.7,1.5-8.7l-1-4.4
		c1.4-3.5,0.6-7.5-1.8-10.2c3.4-7.8,5.9-24.6,6.4-28.5l1-0.1c1.7-0.1,3.3-1,4.4-2.3c1-1.3,1.4-3,1.2-4.7
		c-2.7-15.1-13.1-51.3-52.9-60.5h-0.1C96.9,37.8,72.7,72.9,68.3,80c-0.8,1.3-1.1,3-0.7,4.6c0.4,1.5,1.3,2.9,2.7,3.7l0.4,0.3
		c-1.4,4.6-6.3,20.6-6.7,28.9c-3.3,1.3-5.6,4.4-6,7.9l-3.1,3.7c-2,2.3-2.9,5.4-2.5,8.5l2.6,18.4c0.4,3.2,2.2,6,4.9,7.8l3.5,2.3
		c0.9,3.5,3.6,6.2,7.1,7.1c1.1,0.2,2.2,0.2,3.4,0.2l5.1-0.8c5.2-0.7,8.9-5.5,8.2-10.7l-5.2-37.6c-0.7-5.2-5.5-8.9-10.7-8.2l-4.3,0.7
		c0.6-7.7,4.7-21.4,6.3-26.4l0.8,0.5c0.6,0.3,1.2,0.6,1.8,0.7c2.4,0.6,4.9-0.4,6.2-2.6c6.7-10,25.8-32.3,57.1-25.1h0.1
		c31.2,7.2,38,35.4,39.5,47.3c0.4,3.3,3.2,5.7,6.5,5.4l0.9-0.1c-0.7,4.4-2.9,18.8-5.7,26.2l-3.2-2.2c-2.2-1.4-4.8-1.9-7.2-1.4
		c-2.5,0.4-4.7,2-6.1,4.1l-20.8,31.4c-2.9,4.5-1.7,10.5,2.6,13.4l4,2.7c1.1,0.6,2.1,1.1,3.2,1.4c1.2,0.3,2.6,0.4,4,0
		C159.2,191.7,161.1,190.5,162.4,188.9z M61.7,161.3c-1.9-1.2-3.2-3.3-3.5-5.6l-2.4-18.4c-0.3-2.3,0.4-4.5,1.8-6.2l0.8-1l4.4,32
		L61.7,161.3z M71.7,119.1c0.8-0.1,1.6-0.1,2.3,0.1c2.5,0.6,4.6,2.6,4.9,5.2l5.2,37.6c0.5,3.5-1.9,6.8-5.4,7.3l-5.1,0.8
		c-0.1,0-0.3,0-0.4,0l-6.1-50.4L71.7,119.1z M70.2,169.8c-2-0.8-3.6-2.7-3.9-5l-5.1-37.5c0-0.2,0-0.4-0.1-0.6
		c0.2-0.4,0.2-0.8,0.1-1.2c0.3-1.9,1.4-3.7,3.1-4.7L70.2,169.8z M185.2,113.3c-1.6,0.2-3.1-0.9-3.2-2.5c-1.5-12.5-8.8-42.4-41.8-50
		h-0.1C107,53.3,86.8,76.8,79.7,87.3c-0.8,1.4-2.5,1.7-3.9,0.9l-2-1.3c-0.2-0.2-0.4-0.4-0.7-0.5c-0.1,0-0.2-0.1-0.2-0.1l-1-0.6
		c-0.7-0.4-1.2-1.1-1.4-1.8c-0.2-0.8,0-1.5,0.4-2.2c4.1-6.8,27.2-40.2,71.4-30.1h0.1c37.9,8.8,47.9,43.5,50.5,58
		c0.2,0.8,0,1.7-0.5,2.3c-0.6,0.7-1.3,1-2.1,1.1L185.2,113.3z M182.8,159.8c0.5,2.2,0.1,4.5-1.1,6.3l-10.2,15.6
		c-1.3,1.9-3.2,3.2-5.5,3.5l-1.1,0.1l17.7-26.7L182.8,159.8z M151.7,188.2c0,0-0.1,0-0.1-0.1l-4-2.7c-3.1-2-3.8-6.1-1.8-9.1
		l20.8-31.4c1-1.5,2.3-2.4,4.1-2.8c0.9-0.2,1.7-0.1,2.6,0.1c0.7,0.2,1.4,0.4,2.1,0.9l3.6,2.4L151.7,188.2z M156.3,189.1
		c-0.5,0.1-1,0.1-1.5,0.1l26.5-41.5c1,1.6,1.3,3.5,0.8,5.3c-0.4,0.3-0.7,0.9-0.6,1.4c-0.1,0.2-0.2,0.3-0.3,0.5l-20.8,31.4
		C159.5,187.8,158.1,188.7,156.3,189.1z"/>
</g>
</svg>
